<?xml version="1.0" standalone="no"?>
<!DOCTYPE svg PUBLIC "-//W3C//DTD SVG 20010904//EN"
 "http://www.w3.org/TR/2001/REC-SVG-20010904/DTD/svg10.dtd">
<svg version="1.0" xmlns="http://www.w3.org/2000/svg"
 width="200.000000pt" height="200.000000pt" viewBox="0 0 200.000000 200.000000"
 preserveAspectRatio="xMidYMid meet">
<metadata>
Created by potrace 1.15, written by Peter Selinger 2001-2017
</metadata>
<g transform="translate(0.000000,200.000000) scale(0.100000,-0.100000)"
fill="#000000" stroke="none">
<path d="M920 1947 c-112 -53 -163 -164 -126 -275 20 -59 83 -123 139 -141
l37 -13 0 -99 0 -99 35 0 35 0 0 99 0 99 37 13 c56 18 119 82 139 141 37 113
-16 226 -130 275 -35 16 -132 15 -166 0z m166 -88 c57 -35 80 -119 49 -178
-28 -54 -71 -81 -130 -81 -169 0 -199 231 -36 281 34 10 78 2 117 -22z"/>
<path d="M279 1822 c-125 -65 -158 -234 -66 -338 64 -74 176 -99 260 -59 l39
18 91 -90 92 -90 23 25 24 25 -88 88 -88 89 14 32 c8 19 15 65 15 110 0 69 -3
81 -30 120 -20 28 -49 53 -84 71 -73 36 -131 36 -202 -1z m179 -72 c43 -27 76
-99 67 -146 -8 -45 -57 -100 -101 -114 -157 -52 -257 169 -118 261 39 25 109
25 152 -1z"/>
<path d="M1529 1823 c-35 -18 -64 -43 -84 -71 -27 -39 -30 -51 -30 -120 0 -45
7 -91 15 -110 l14 -32 -88 -89 -88 -88 24 -25 23 -25 92 90 91 90 39 -18 c84
-40 196 -15 260 59 92 104 59 273 -66 338 -71 37 -129 37 -202 1z m175 -72
c42 -28 66 -70 66 -119 0 -140 -157 -201 -249 -97 -17 19 -33 50 -36 69 -9 47
24 119 67 146 43 26 113 26 152 1z"/>
<path d="M765 1237 c-3 -7 -4 -116 -3 -242 l3 -230 240 0 240 0 0 240 0 240
-238 3 c-187 2 -239 0 -242 -11z m415 -232 l0 -175 -175 0 -175 0 0 175 0 175
175 0 175 0 0 -175z"/>
<path d="M912 1048 c-17 -17 -15 -55 4 -62 20 -8 158 -8 178 0 19 7 21 45 4
62 -16 16 -170 16 -186 0z"/>
<path d="M153 1190 c-74 -42 -108 -103 -108 -190 0 -53 5 -74 28 -113 56 -94
182 -134 282 -88 50 22 111 89 120 130 l6 30 102 3 102 3 0 35 0 35 -102 3
-102 3 -6 30 c-9 41 -70 108 -120 130 -63 29 -140 25 -202 -11z m187 -69 c62
-44 86 -121 56 -179 -82 -157 -304 -81 -272 93 17 91 139 140 216 86z"/>
<path d="M1655 1201 c-50 -22 -111 -89 -120 -130 l-6 -30 -102 -3 -102 -3 0
-35 0 -35 102 -3 102 -3 6 -30 c9 -41 70 -108 120 -130 100 -46 226 -6 282 88
23 39 28 60 28 113 0 53 -5 74 -28 113 -56 94 -182 134 -282 88z m171 -82 c85
-52 83 -187 -3 -241 -46 -28 -114 -29 -151 -1 -87 64 -95 161 -19 231 47 45
111 49 173 11z"/>
<path d="M606 651 l-88 -89 -42 19 c-123 56 -271 -11 -306 -137 -39 -139 50
-272 190 -282 71 -5 120 10 167 51 69 61 92 168 57 258 l-17 41 89 89 89 89
-25 25 -25 25 -89 -89z m-136 -161 c66 -51 74 -142 18 -206 -87 -99 -248 -38
-248 94 0 72 30 114 97 137 49 17 89 9 133 -25z"/>
<path d="M1290 715 l-24 -26 88 -88 89 -89 -17 -41 c-21 -54 -20 -136 3 -186
70 -155 292 -169 387 -25 50 75 42 191 -17 263 -60 73 -177 98 -264 58 l-40
-19 -90 89 -91 90 -24 -26z m413 -212 c88 -45 88 -201 0 -246 -68 -34 -125
-28 -175 20 -61 58 -57 159 7 210 54 44 104 48 168 16z"/>
<path d="M970 581 l0 -99 -37 -13 c-20 -6 -56 -29 -79 -51 -148 -137 -52 -378
151 -378 154 0 259 143 211 288 -20 59 -83 123 -139 141 l-37 13 0 99 0 99
-35 0 -35 0 0 -99z m120 -207 c82 -69 79 -182 -7 -236 -122 -74 -273 57 -208
181 28 54 71 81 130 81 43 0 60 -5 85 -26z"/>
</g>
</svg>
